<mxfile host="Electron" modified="2023-07-17T11:57:28.070Z" agent="Mozilla/5.0 (Windows NT 6.1; Win64; x64) AppleWebKit/537.36 (KHTML, like Gecko) draw.io/21.1.2 Chrome/106.0.5249.199 Electron/21.4.3 Safari/537.36" etag="fU9QLe3AVGuflH0Wq6pt" version="21.1.2" type="device">
  <diagram name="ページ1" id="_eSGxJy2ofqgYQKVWeNo">
    <mxGraphModel dx="1418" dy="775" grid="1" gridSize="10" guides="1" tooltips="1" connect="1" arrows="1" fold="1" page="1" pageScale="1" pageWidth="1169" pageHeight="827" math="0" shadow="0">
      <root>
        <mxCell id="0" />
        <mxCell id="1" parent="0" />
        <mxCell id="JPqLF3snklg5CDO2caL_-1" value="" style="rounded=1;whiteSpace=wrap;html=1;arcSize=6;strokeColor=#56517e;fillColor=#d0cee2;" vertex="1" parent="1">
          <mxGeometry x="360" width="760" height="520" as="geometry" />
        </mxCell>
        <mxCell id="JPqLF3snklg5CDO2caL_-2" value="" style="group" vertex="1" connectable="0" parent="1">
          <mxGeometry x="961.5" y="40.5" width="115" height="223.5" as="geometry" />
        </mxCell>
        <mxCell id="JPqLF3snklg5CDO2caL_-3" value="" style="shape=parallelogram;perimeter=parallelogramPerimeter;whiteSpace=wrap;html=1;fixedSize=1;flipH=1;rotation=-90;" vertex="1" parent="JPqLF3snklg5CDO2caL_-2">
          <mxGeometry x="-13.5" y="74" width="56" height="29" as="geometry" />
        </mxCell>
        <mxCell id="JPqLF3snklg5CDO2caL_-4" value="" style="shape=parallelogram;perimeter=parallelogramPerimeter;whiteSpace=wrap;html=1;fixedSize=1;flipH=1;rotation=-90;" vertex="1" parent="JPqLF3snklg5CDO2caL_-2">
          <mxGeometry x="-13.5" y="109.5" width="56" height="29" as="geometry" />
        </mxCell>
        <mxCell id="JPqLF3snklg5CDO2caL_-5" value="" style="shape=parallelogram;perimeter=parallelogramPerimeter;whiteSpace=wrap;html=1;fixedSize=1;flipH=1;rotation=-90;" vertex="1" parent="JPqLF3snklg5CDO2caL_-2">
          <mxGeometry x="-13.5" y="145.5" width="56" height="29" as="geometry" />
        </mxCell>
        <mxCell id="JPqLF3snklg5CDO2caL_-6" value="" style="shape=parallelogram;perimeter=parallelogramPerimeter;whiteSpace=wrap;html=1;fixedSize=1;flipH=1;rotation=-90;" vertex="1" parent="JPqLF3snklg5CDO2caL_-2">
          <mxGeometry x="-13.5" y="181" width="56" height="29" as="geometry" />
        </mxCell>
        <mxCell id="JPqLF3snklg5CDO2caL_-7" value="" style="shape=parallelogram;perimeter=parallelogramPerimeter;whiteSpace=wrap;html=1;fixedSize=1;flipH=1;rotation=-90;" vertex="1" parent="JPqLF3snklg5CDO2caL_-2">
          <mxGeometry x="15" y="54" width="56" height="29" as="geometry" />
        </mxCell>
        <mxCell id="JPqLF3snklg5CDO2caL_-8" value="" style="shape=parallelogram;perimeter=parallelogramPerimeter;whiteSpace=wrap;html=1;fixedSize=1;flipH=1;rotation=-90;" vertex="1" parent="JPqLF3snklg5CDO2caL_-2">
          <mxGeometry x="15" y="89.5" width="56" height="29" as="geometry" />
        </mxCell>
        <mxCell id="JPqLF3snklg5CDO2caL_-9" value="" style="shape=parallelogram;perimeter=parallelogramPerimeter;whiteSpace=wrap;html=1;fixedSize=1;flipH=1;rotation=-90;" vertex="1" parent="JPqLF3snklg5CDO2caL_-2">
          <mxGeometry x="15" y="125.5" width="56" height="29" as="geometry" />
        </mxCell>
        <mxCell id="JPqLF3snklg5CDO2caL_-10" value="" style="shape=parallelogram;perimeter=parallelogramPerimeter;whiteSpace=wrap;html=1;fixedSize=1;flipH=1;rotation=-90;" vertex="1" parent="JPqLF3snklg5CDO2caL_-2">
          <mxGeometry x="15" y="161" width="56" height="29" as="geometry" />
        </mxCell>
        <mxCell id="JPqLF3snklg5CDO2caL_-11" value="" style="shape=parallelogram;perimeter=parallelogramPerimeter;whiteSpace=wrap;html=1;fixedSize=1;flipH=1;rotation=-90;" vertex="1" parent="JPqLF3snklg5CDO2caL_-2">
          <mxGeometry x="44" y="33.5" width="56" height="29" as="geometry" />
        </mxCell>
        <mxCell id="JPqLF3snklg5CDO2caL_-12" value="" style="shape=parallelogram;perimeter=parallelogramPerimeter;whiteSpace=wrap;html=1;fixedSize=1;flipH=1;rotation=-90;" vertex="1" parent="JPqLF3snklg5CDO2caL_-2">
          <mxGeometry x="44" y="69" width="56" height="29" as="geometry" />
        </mxCell>
        <mxCell id="JPqLF3snklg5CDO2caL_-13" value="" style="shape=parallelogram;perimeter=parallelogramPerimeter;whiteSpace=wrap;html=1;fixedSize=1;flipH=1;rotation=-90;fillColor=#f8cecc;strokeColor=#b85450;" vertex="1" parent="JPqLF3snklg5CDO2caL_-2">
          <mxGeometry x="44" y="105" width="56" height="29" as="geometry" />
        </mxCell>
        <mxCell id="JPqLF3snklg5CDO2caL_-14" value="" style="shape=parallelogram;perimeter=parallelogramPerimeter;whiteSpace=wrap;html=1;fixedSize=1;flipH=1;rotation=-90;" vertex="1" parent="JPqLF3snklg5CDO2caL_-2">
          <mxGeometry x="44" y="140.5" width="56" height="29" as="geometry" />
        </mxCell>
        <mxCell id="JPqLF3snklg5CDO2caL_-15" value="" style="shape=parallelogram;perimeter=parallelogramPerimeter;whiteSpace=wrap;html=1;fixedSize=1;flipH=1;rotation=-90;" vertex="1" parent="JPqLF3snklg5CDO2caL_-2">
          <mxGeometry x="72.5" y="13.5" width="56" height="29" as="geometry" />
        </mxCell>
        <mxCell id="JPqLF3snklg5CDO2caL_-16" value="" style="shape=parallelogram;perimeter=parallelogramPerimeter;whiteSpace=wrap;html=1;fixedSize=1;flipH=1;rotation=-90;" vertex="1" parent="JPqLF3snklg5CDO2caL_-2">
          <mxGeometry x="72.5" y="49" width="56" height="29" as="geometry" />
        </mxCell>
        <mxCell id="JPqLF3snklg5CDO2caL_-17" value="" style="shape=parallelogram;perimeter=parallelogramPerimeter;whiteSpace=wrap;html=1;fixedSize=1;flipH=1;rotation=-90;" vertex="1" parent="JPqLF3snklg5CDO2caL_-2">
          <mxGeometry x="72.5" y="85" width="56" height="29" as="geometry" />
        </mxCell>
        <mxCell id="JPqLF3snklg5CDO2caL_-18" value="" style="shape=parallelogram;perimeter=parallelogramPerimeter;whiteSpace=wrap;html=1;fixedSize=1;flipH=1;rotation=-90;" vertex="1" parent="JPqLF3snklg5CDO2caL_-2">
          <mxGeometry x="72.5" y="120.5" width="56" height="29" as="geometry" />
        </mxCell>
        <mxCell id="JPqLF3snklg5CDO2caL_-19" value="" style="group" vertex="1" connectable="0" parent="1">
          <mxGeometry x="401.5" y="40.5" width="115" height="223.5" as="geometry" />
        </mxCell>
        <mxCell id="JPqLF3snklg5CDO2caL_-20" value="" style="shape=parallelogram;perimeter=parallelogramPerimeter;whiteSpace=wrap;html=1;fixedSize=1;flipH=1;rotation=-90;" vertex="1" parent="JPqLF3snklg5CDO2caL_-19">
          <mxGeometry x="-13.5" y="74" width="56" height="29" as="geometry" />
        </mxCell>
        <mxCell id="JPqLF3snklg5CDO2caL_-21" value="" style="shape=parallelogram;perimeter=parallelogramPerimeter;whiteSpace=wrap;html=1;fixedSize=1;flipH=1;rotation=-90;" vertex="1" parent="JPqLF3snklg5CDO2caL_-19">
          <mxGeometry x="-13.5" y="109.5" width="56" height="29" as="geometry" />
        </mxCell>
        <mxCell id="JPqLF3snklg5CDO2caL_-22" value="" style="shape=parallelogram;perimeter=parallelogramPerimeter;whiteSpace=wrap;html=1;fixedSize=1;flipH=1;rotation=-90;" vertex="1" parent="JPqLF3snklg5CDO2caL_-19">
          <mxGeometry x="-13.5" y="145.5" width="56" height="29" as="geometry" />
        </mxCell>
        <mxCell id="JPqLF3snklg5CDO2caL_-23" value="" style="shape=parallelogram;perimeter=parallelogramPerimeter;whiteSpace=wrap;html=1;fixedSize=1;flipH=1;rotation=-90;" vertex="1" parent="JPqLF3snklg5CDO2caL_-19">
          <mxGeometry x="-13.5" y="181" width="56" height="29" as="geometry" />
        </mxCell>
        <mxCell id="JPqLF3snklg5CDO2caL_-24" value="" style="shape=parallelogram;perimeter=parallelogramPerimeter;whiteSpace=wrap;html=1;fixedSize=1;flipH=1;rotation=-90;" vertex="1" parent="JPqLF3snklg5CDO2caL_-19">
          <mxGeometry x="15" y="54" width="56" height="29" as="geometry" />
        </mxCell>
        <mxCell id="JPqLF3snklg5CDO2caL_-25" value="" style="shape=parallelogram;perimeter=parallelogramPerimeter;whiteSpace=wrap;html=1;fixedSize=1;flipH=1;rotation=-90;" vertex="1" parent="JPqLF3snklg5CDO2caL_-19">
          <mxGeometry x="15" y="89.5" width="56" height="29" as="geometry" />
        </mxCell>
        <mxCell id="JPqLF3snklg5CDO2caL_-26" value="" style="shape=parallelogram;perimeter=parallelogramPerimeter;whiteSpace=wrap;html=1;fixedSize=1;flipH=1;rotation=-90;" vertex="1" parent="JPqLF3snklg5CDO2caL_-19">
          <mxGeometry x="15" y="125.5" width="56" height="29" as="geometry" />
        </mxCell>
        <mxCell id="JPqLF3snklg5CDO2caL_-27" value="" style="shape=parallelogram;perimeter=parallelogramPerimeter;whiteSpace=wrap;html=1;fixedSize=1;flipH=1;rotation=-90;" vertex="1" parent="JPqLF3snklg5CDO2caL_-19">
          <mxGeometry x="15" y="161" width="56" height="29" as="geometry" />
        </mxCell>
        <mxCell id="JPqLF3snklg5CDO2caL_-28" value="" style="shape=parallelogram;perimeter=parallelogramPerimeter;whiteSpace=wrap;html=1;fixedSize=1;flipH=1;rotation=-90;" vertex="1" parent="JPqLF3snklg5CDO2caL_-19">
          <mxGeometry x="44" y="33.5" width="56" height="29" as="geometry" />
        </mxCell>
        <mxCell id="JPqLF3snklg5CDO2caL_-29" value="" style="shape=parallelogram;perimeter=parallelogramPerimeter;whiteSpace=wrap;html=1;fixedSize=1;flipH=1;rotation=-90;" vertex="1" parent="JPqLF3snklg5CDO2caL_-19">
          <mxGeometry x="44" y="69" width="56" height="29" as="geometry" />
        </mxCell>
        <mxCell id="JPqLF3snklg5CDO2caL_-30" value="" style="shape=parallelogram;perimeter=parallelogramPerimeter;whiteSpace=wrap;html=1;fixedSize=1;flipH=1;rotation=-90;fillColor=#d5e8d4;strokeColor=#82b366;" vertex="1" parent="JPqLF3snklg5CDO2caL_-19">
          <mxGeometry x="44" y="105" width="56" height="29" as="geometry" />
        </mxCell>
        <mxCell id="JPqLF3snklg5CDO2caL_-31" value="" style="shape=parallelogram;perimeter=parallelogramPerimeter;whiteSpace=wrap;html=1;fixedSize=1;flipH=1;rotation=-90;" vertex="1" parent="JPqLF3snklg5CDO2caL_-19">
          <mxGeometry x="44" y="140.5" width="56" height="29" as="geometry" />
        </mxCell>
        <mxCell id="JPqLF3snklg5CDO2caL_-32" value="" style="shape=parallelogram;perimeter=parallelogramPerimeter;whiteSpace=wrap;html=1;fixedSize=1;flipH=1;rotation=-90;" vertex="1" parent="JPqLF3snklg5CDO2caL_-19">
          <mxGeometry x="72.5" y="13.5" width="56" height="29" as="geometry" />
        </mxCell>
        <mxCell id="JPqLF3snklg5CDO2caL_-33" value="" style="shape=parallelogram;perimeter=parallelogramPerimeter;whiteSpace=wrap;html=1;fixedSize=1;flipH=1;rotation=-90;" vertex="1" parent="JPqLF3snklg5CDO2caL_-19">
          <mxGeometry x="72.5" y="49" width="56" height="29" as="geometry" />
        </mxCell>
        <mxCell id="JPqLF3snklg5CDO2caL_-34" value="" style="shape=parallelogram;perimeter=parallelogramPerimeter;whiteSpace=wrap;html=1;fixedSize=1;flipH=1;rotation=-90;" vertex="1" parent="JPqLF3snklg5CDO2caL_-19">
          <mxGeometry x="72.5" y="85" width="56" height="29" as="geometry" />
        </mxCell>
        <mxCell id="JPqLF3snklg5CDO2caL_-35" value="" style="shape=parallelogram;perimeter=parallelogramPerimeter;whiteSpace=wrap;html=1;fixedSize=1;flipH=1;rotation=-90;" vertex="1" parent="JPqLF3snklg5CDO2caL_-19">
          <mxGeometry x="72.5" y="120.5" width="56" height="29" as="geometry" />
        </mxCell>
        <mxCell id="JPqLF3snklg5CDO2caL_-36" value="" style="rounded=0;whiteSpace=wrap;html=1;fillColor=none;strokeColor=none;" vertex="1" parent="1">
          <mxGeometry width="40" height="40" as="geometry" />
        </mxCell>
        <mxCell id="JPqLF3snklg5CDO2caL_-37" value="" style="rounded=0;whiteSpace=wrap;html=1;fillColor=none;strokeColor=none;" vertex="1" parent="1">
          <mxGeometry x="1600" width="40" height="40" as="geometry" />
        </mxCell>
        <mxCell id="JPqLF3snklg5CDO2caL_-38" value="f" style="ellipse;whiteSpace=wrap;html=1;fontStyle=3;fontSize=16;fontFamily=Georgia;fillColor=#999999;strokeColor=#314354;fontColor=#ffffff;" vertex="1" parent="1">
          <mxGeometry x="761.5" y="140" width="38.5" height="40" as="geometry" />
        </mxCell>
        <mxCell id="JPqLF3snklg5CDO2caL_-39" value="" style="endArrow=classic;html=1;rounded=0;strokeWidth=2;exitX=1;exitY=0.5;exitDx=0;exitDy=0;entryX=0.5;entryY=0;entryDx=0;entryDy=0;strokeColor=#000000;" edge="1" parent="1" source="JPqLF3snklg5CDO2caL_-38" target="JPqLF3snklg5CDO2caL_-13">
          <mxGeometry width="50" height="50" relative="1" as="geometry">
            <mxPoint x="498" y="170" as="sourcePoint" />
            <mxPoint x="772" y="170" as="targetPoint" />
          </mxGeometry>
        </mxCell>
        <mxCell id="JPqLF3snklg5CDO2caL_-40" value="" style="endArrow=classic;html=1;rounded=0;strokeWidth=2;" edge="1" parent="1" source="JPqLF3snklg5CDO2caL_-30" target="JPqLF3snklg5CDO2caL_-38">
          <mxGeometry width="50" height="50" relative="1" as="geometry">
            <mxPoint x="711.5" y="320" as="sourcePoint" />
            <mxPoint x="761.5" y="270" as="targetPoint" />
          </mxGeometry>
        </mxCell>
        <mxCell id="JPqLF3snklg5CDO2caL_-41" value="&lt;span style=&quot;font-size: 18px;&quot;&gt;Destination&lt;/span&gt;" style="rounded=0;whiteSpace=wrap;html=1;fontStyle=1;fontSize=18;strokeColor=none;fillColor=none;" vertex="1" parent="1">
          <mxGeometry x="956.5" y="0.5" width="120" height="40" as="geometry" />
        </mxCell>
        <mxCell id="JPqLF3snklg5CDO2caL_-42" value="" style="shape=parallelogram;perimeter=parallelogramPerimeter;whiteSpace=wrap;html=1;fixedSize=1;flipH=1;rotation=-90;size=88.62000000000012;dashed=1;" vertex="1" parent="1">
          <mxGeometry x="346.69" y="300" width="228.62" height="120" as="geometry" />
        </mxCell>
        <mxCell id="JPqLF3snklg5CDO2caL_-43" value="" style="shape=parallelogram;perimeter=parallelogramPerimeter;whiteSpace=wrap;html=1;fixedSize=1;flipH=1;rotation=-90;size=88.62000000000012;dashed=1;" vertex="1" parent="1">
          <mxGeometry x="356.69" y="310" width="228.62" height="120" as="geometry" />
        </mxCell>
        <mxCell id="JPqLF3snklg5CDO2caL_-44" style="rounded=0;orthogonalLoop=1;jettySize=auto;html=1;entryX=0;entryY=1;entryDx=0;entryDy=0;strokeWidth=1;exitX=0.75;exitY=1;exitDx=0;exitDy=0;dashed=1;" edge="1" parent="1" source="JPqLF3snklg5CDO2caL_-45" target="JPqLF3snklg5CDO2caL_-38">
          <mxGeometry relative="1" as="geometry">
            <mxPoint x="694.5988736223514" y="480" as="sourcePoint" />
          </mxGeometry>
        </mxCell>
        <mxCell id="JPqLF3snklg5CDO2caL_-45" value="" style="shape=parallelogram;perimeter=parallelogramPerimeter;whiteSpace=wrap;html=1;fixedSize=1;flipH=1;rotation=-90;fillColor=#d5e8d4;strokeColor=#82b366;" vertex="1" parent="1">
          <mxGeometry x="442.99999999999994" y="370" width="56" height="29" as="geometry" />
        </mxCell>
        <mxCell id="JPqLF3snklg5CDO2caL_-46" style="rounded=0;orthogonalLoop=1;jettySize=auto;html=1;entryX=0.5;entryY=0;entryDx=0;entryDy=0;exitX=0.5;exitY=1;exitDx=0;exitDy=0;" edge="1" parent="1" source="JPqLF3snklg5CDO2caL_-47" target="JPqLF3snklg5CDO2caL_-56">
          <mxGeometry relative="1" as="geometry" />
        </mxCell>
        <mxCell id="JPqLF3snklg5CDO2caL_-47" value="R" style="rounded=0;whiteSpace=wrap;html=1;fontStyle=1;fontSize=18;" vertex="1" parent="1">
          <mxGeometry x="700.75" y="200" width="40" height="40" as="geometry" />
        </mxCell>
        <mxCell id="JPqLF3snklg5CDO2caL_-48" style="rounded=0;orthogonalLoop=1;jettySize=auto;html=1;entryX=0.5;entryY=0;entryDx=0;entryDy=0;exitX=0.5;exitY=1;exitDx=0;exitDy=0;" edge="1" parent="1" source="JPqLF3snklg5CDO2caL_-49" target="JPqLF3snklg5CDO2caL_-54">
          <mxGeometry relative="1" as="geometry" />
        </mxCell>
        <mxCell id="JPqLF3snklg5CDO2caL_-49" value="G" style="rounded=0;whiteSpace=wrap;html=1;fontStyle=1;fontSize=18;" vertex="1" parent="1">
          <mxGeometry x="740.75" y="200" width="40" height="40" as="geometry" />
        </mxCell>
        <mxCell id="JPqLF3snklg5CDO2caL_-50" style="rounded=0;orthogonalLoop=1;jettySize=auto;html=1;entryX=0.5;entryY=0;entryDx=0;entryDy=0;exitX=0.5;exitY=1;exitDx=0;exitDy=0;" edge="1" parent="1" source="JPqLF3snklg5CDO2caL_-51" target="JPqLF3snklg5CDO2caL_-55">
          <mxGeometry relative="1" as="geometry" />
        </mxCell>
        <mxCell id="JPqLF3snklg5CDO2caL_-51" value="B" style="rounded=0;whiteSpace=wrap;html=1;fontStyle=1;fontSize=18;" vertex="1" parent="1">
          <mxGeometry x="780.75" y="200" width="40" height="40" as="geometry" />
        </mxCell>
        <mxCell id="JPqLF3snklg5CDO2caL_-52" style="edgeStyle=none;shape=connector;rounded=0;orthogonalLoop=1;jettySize=auto;html=1;labelBackgroundColor=default;strokeColor=default;fontFamily=Helvetica;fontSize=11;fontColor=default;endArrow=classic;" edge="1" parent="1" source="JPqLF3snklg5CDO2caL_-53" target="JPqLF3snklg5CDO2caL_-57">
          <mxGeometry relative="1" as="geometry" />
        </mxCell>
        <mxCell id="JPqLF3snklg5CDO2caL_-53" value="A" style="rounded=0;whiteSpace=wrap;html=1;fontStyle=1;fontSize=18;" vertex="1" parent="1">
          <mxGeometry x="820.75" y="200" width="40" height="40" as="geometry" />
        </mxCell>
        <mxCell id="JPqLF3snklg5CDO2caL_-54" value="R" style="rounded=0;whiteSpace=wrap;html=1;fontStyle=1;fontSize=18;" vertex="1" parent="1">
          <mxGeometry x="700.75" y="280" width="40" height="40" as="geometry" />
        </mxCell>
        <mxCell id="JPqLF3snklg5CDO2caL_-55" value="G" style="rounded=0;whiteSpace=wrap;html=1;fontStyle=1;fontSize=18;" vertex="1" parent="1">
          <mxGeometry x="740.75" y="280" width="40" height="40" as="geometry" />
        </mxCell>
        <mxCell id="JPqLF3snklg5CDO2caL_-56" value="B" style="rounded=0;whiteSpace=wrap;html=1;fontStyle=1;fontSize=18;" vertex="1" parent="1">
          <mxGeometry x="780.75" y="280" width="40" height="40" as="geometry" />
        </mxCell>
        <mxCell id="JPqLF3snklg5CDO2caL_-57" value="A" style="rounded=0;whiteSpace=wrap;html=1;fontStyle=1;fontSize=18;" vertex="1" parent="1">
          <mxGeometry x="820.75" y="280" width="40" height="40" as="geometry" />
        </mxCell>
        <mxCell id="JPqLF3snklg5CDO2caL_-58" value="Multiple images can be input." style="text;html=1;align=center;verticalAlign=middle;resizable=0;points=[];autosize=1;strokeColor=none;fillColor=none;rotation=324;labelBackgroundColor=none;" vertex="1" parent="1">
          <mxGeometry x="520.75" y="250" width="180" height="30" as="geometry" />
        </mxCell>
        <mxCell id="JPqLF3snklg5CDO2caL_-59" value="&lt;span style=&quot;font-size: 18px;&quot;&gt;Source&lt;/span&gt;" style="rounded=0;whiteSpace=wrap;html=1;fontStyle=1;fontSize=18;strokeColor=none;fillColor=none;" vertex="1" parent="1">
          <mxGeometry x="399" y="0.5" width="120" height="40" as="geometry" />
        </mxCell>
      </root>
    </mxGraphModel>
  </diagram>
</mxfile>
